<svg xmlns="http://www.w3.org/2000/svg" width="133" height="107" viewBox="0 0 133 107"><defs><style>.a{fill:#fff;opacity:0.42;}.b{fill:#2f6aa2;}</style></defs><g transform="translate(-962 -963)"><circle class="a" cx="31" cy="31" r="31" transform="translate(1033 963)"/><circle class="a" cx="31" cy="31" r="31" transform="translate(962 1008)"/><path class="b" d="M91.5,76.021a8.563,8.563,0,0,0-14.379-6.286,4.8,4.8,0,0,0-6.544,6.532l-13.41,13.41V69.62h8.584a1.34,1.34,0,1,0,0-2.681H57.163V60.091a1.34,1.34,0,1,0-2.681,0v6.848H22.7a1.34,1.34,0,1,0,0,2.681h5.849l-15.9,9.169-.047.029v-9.2h4.733a1.34,1.34,0,0,0,0-2.681H12.6V60.092a1.34,1.34,0,1,0-2.681,0v6.847H1.34a1.34,1.34,0,0,0,0,2.681H9.924v48.761H1.34a1.34,1.34,0,0,0,0,2.681H9.924v6.847a1.34,1.34,0,0,0,2.681,0v-6.847H45.9a1.34,1.34,0,0,0,0-2.681H38.541l5.653-3.261a3.136,3.136,0,0,0,2.043.761,3.2,3.2,0,0,0,1.076-.188l7.171-2.555v5.243H51.261a1.34,1.34,0,0,0,0,2.681h3.222v6.848a1.34,1.34,0,1,0,2.681,0v-6.848h8.584a1.34,1.34,0,1,0,0-2.681H57.163v-6.2l2.384-.85h0a1.352,1.352,0,0,0,.127-.053l.029-.015q.045-.023.089-.049l.038-.024c.027-.018.053-.037.079-.056l.031-.023c.034-.028.068-.058.1-.089l0,0L82.685,88.379a4.8,4.8,0,0,0,6.532-6.544A8.5,8.5,0,0,0,91.5,76.021Zm-4.4-4.161a5.881,5.881,0,0,1,.342,7.947l-8.288-8.288a5.894,5.894,0,0,1,7.947.341ZM51.47,111.366l-3.883-3.883,2.286-6.416a3.071,3.071,0,0,1,2.448.457c.512.512.633,1.62.35,3.2,0,.007,0,.015,0,.023-.006.039-.011.079-.014.119,0,.016,0,.032,0,.048,0,.035,0,.07,0,.1a1.34,1.34,0,0,0,1.573,1.261c1.584-.283,2.692-.162,3.2.35a3.071,3.071,0,0,1,.457,2.448Zm7.854-6.629a4.248,4.248,0,0,0-2.1-1.116L69.181,91.667a1.34,1.34,0,0,0-1.9-1.9L55.332,101.724a4.064,4.064,0,0,0-3.215-3.211L72.344,78.286,75.557,81.5l-3.9,3.9a1.34,1.34,0,0,0,1.9,1.9l3.9-3.9,3.213,3.213L60.438,106.834a4.246,4.246,0,0,0-1.114-2.1ZM54.483,69.62v9.208l-.037-.023L38.552,69.62ZM12.609,83.5a2.773,2.773,0,0,1,1.383-2.388L32.175,70.622a2.762,2.762,0,0,1,2.756,0L53.1,81.125a2.768,2.768,0,0,1,1.379,2.389v8.843l-5.909,5.909v-9.8a5.452,5.452,0,0,0-2.715-4.71l-9.59-5.542a5.452,5.452,0,0,0-5.437,0l-9.595,5.535a5.454,5.454,0,0,0-2.723,4.708V99.533a5.451,5.451,0,0,0,2.715,4.71l9.59,5.542a5.451,5.451,0,0,0,5.437,0l9.595-5.534.052-.032-2.644,7.42a3.206,3.206,0,0,0-.185,1.031l-8.159,4.707a2.767,2.767,0,0,1-2.758,0l-18.174-10.5a2.761,2.761,0,0,1-1.373-2.389Zm33.284,4.969V99.543a2.765,2.765,0,0,1-1.381,2.387l-9.595,5.535a2.764,2.764,0,0,1-2.756,0l-9.59-5.542a2.763,2.763,0,0,1-1.375-2.388V88.457a2.765,2.765,0,0,1,1.381-2.387l9.595-5.535a2.764,2.764,0,0,1,2.757,0l9.59,5.542A2.765,2.765,0,0,1,45.893,88.467ZM12.6,118.381v-9.207l.037.023,15.894,9.185H12.6Zm33.808-5.213a.492.492,0,0,1-.628-.628l.806-2.262,2.084,2.084ZM86.543,85.7a2.119,2.119,0,0,1-2.993,0l-.041-.041L73.292,75.443l-.041-.041a2.117,2.117,0,0,1,2.993-2.993l10.3,10.3a2.119,2.119,0,0,1,0,2.993Z" transform="translate(987.504 926.249)"/></g></svg>