<svg xmlns="http://www.w3.org/2000/svg" width="36" height="36" viewBox="0 0 36 36"><defs><style>.a{fill:#22405d;}.b,.d{fill:none;}.b{stroke:#22405d;}.c{stroke:none;}</style></defs><g transform="translate(-0.017 0.162)"><g transform="translate(11.329 9.986)"><path class="a" d="M44.707,1.645A6.643,6.643,0,0,0,40.188,0a7.287,7.287,0,0,0-5.24,1.925,5.561,5.561,0,0,0-1.767,3.943,3.672,3.672,0,0,0,2.1,3.67.725.725,0,0,0,.264.052.581.581,0,0,0,.573-.45c.044-.159.147-.551.192-.722a.656.656,0,0,0-.19-.732,2.265,2.265,0,0,1-.557-1.594,4.116,4.116,0,0,1,4.367-4.04c2.251,0,3.649,1.219,3.649,3.181a6.359,6.359,0,0,1-.788,3.229A2.328,2.328,0,0,1,40.86,9.747,1.3,1.3,0,0,1,39.844,9.3a1.073,1.073,0,0,1-.2-.968c.1-.4.237-.827.37-1.235a7.336,7.336,0,0,0,.47-2.011,1.491,1.491,0,0,0-1.542-1.606,2.35,2.35,0,0,0-2.091,2.583,3.686,3.686,0,0,0,.288,1.446c-.148.6-1.025,4.141-1.192,4.809-.1.39-.676,3.472.284,3.718,1.078.276,2.042-2.725,2.14-3.064.08-.276.358-1.319.528-1.96a3.351,3.351,0,0,0,2.174.8,4.934,4.934,0,0,0,3.893-1.856A7.212,7.212,0,0,0,46.425,5.4,5.141,5.141,0,0,0,44.707,1.645Z" transform="translate(-33.181 0)"/></g><g class="b" transform="translate(0.017 -0.162)"><circle class="c" cx="18" cy="18" r="18"/><circle class="d" cx="18" cy="18" r="17.5"/></g></g></svg>