<svg xmlns="http://www.w3.org/2000/svg" width="35" height="36" viewBox="0 0 35 36"><defs><style>.a{fill:#22405d;}.b,.d{fill:none;}.b{stroke:#22405d;}.c{stroke:none;}</style></defs><g transform="translate(-0.378 0.162)"><path class="a" d="M19.763,49.9a8.447,8.447,0,0,1-2.334.64A4.029,4.029,0,0,0,19.211,48.3a8.1,8.1,0,0,1-2.569.981,4.051,4.051,0,0,0-7.008,2.771,4.172,4.172,0,0,0,.094.924,11.468,11.468,0,0,1-8.351-4.238,4.053,4.053,0,0,0,1.245,5.415,4,4,0,0,1-1.831-.5V53.7A4.07,4.07,0,0,0,4.037,57.68a4.044,4.044,0,0,1-1.062.133,3.583,3.583,0,0,1-.767-.069,4.09,4.09,0,0,0,3.786,2.822A8.141,8.141,0,0,1,.97,62.295,7.588,7.588,0,0,1,0,62.239a11.406,11.406,0,0,0,6.215,1.818A11.452,11.452,0,0,0,17.747,52.528c0-.179-.006-.352-.015-.524A8.083,8.083,0,0,0,19.763,49.9Z" transform="translate(7.592 -38.014)"/><g class="b" transform="translate(0.378 -0.162)"><ellipse class="c" cx="17.5" cy="18" rx="17.5" ry="18"/><ellipse class="d" cx="17.5" cy="18" rx="17" ry="17.5"/></g></g></svg>