<svg xmlns="http://www.w3.org/2000/svg" width="35" height="36" viewBox="0 0 35 36"><defs><style>.a{fill:#22405d;}.b,.d{fill:none;}.b{stroke:#22405d;}.c{stroke:none;}</style></defs><g transform="translate(0.303 0.162)"><g transform="translate(9.927 9.987)"><path class="a" d="M15.841,19.4v6.212h-3.4v-5.8c0-1.456-.491-2.45-1.72-2.45a1.873,1.873,0,0,0-1.742,1.318,2.6,2.6,0,0,0-.113.878v6.051h-3.4s.046-9.817,0-10.834h3.4v1.536l-.022.035h.022v-.035a3.348,3.348,0,0,1,3.061-1.79C14.166,14.526,15.841,16.075,15.841,19.4ZM1.922,9.558A1.82,1.82,0,0,0,0,11.43,1.81,1.81,0,0,0,1.877,13.3H1.9A1.82,1.82,0,0,0,3.821,11.43,1.813,1.813,0,0,0,1.922,9.558ZM.2,25.615H3.6V14.781H.2Z" transform="translate(0 -9.558)"/></g><g class="b" transform="translate(-0.303 -0.162)"><ellipse class="c" cx="17.5" cy="18" rx="17.5" ry="18"/><ellipse class="d" cx="17.5" cy="18" rx="17" ry="17.5"/></g></g></svg>