<svg xmlns="http://www.w3.org/2000/svg" width="133" height="107" viewBox="0 0 133 107"><defs><style>.a{fill:#fff;opacity:0.42;}.b{fill:#2f6aa2;}</style></defs><g transform="translate(-210 -963)"><circle class="a" cx="31" cy="31" r="31" transform="translate(281 963)"/><circle class="a" cx="31" cy="31" r="31" transform="translate(210 1008)"/><g transform="translate(249 988)"><path class="b" d="M70.62,7H4.54A3.544,3.544,0,0,0,1,10.54V62.46A3.544,3.544,0,0,0,4.54,66H70.62a3.544,3.544,0,0,0,3.54-3.54V10.54A3.544,3.544,0,0,0,70.62,7ZM4.54,9.36H70.62a1.181,1.181,0,0,1,1.18,1.18V21.16H3.36V10.54A1.181,1.181,0,0,1,4.54,9.36ZM3.36,62.46V23.52h35.4V63.64H4.54A1.18,1.18,0,0,1,3.36,62.46Zm67.26,1.18H41.12V23.52H71.8V62.46A1.18,1.18,0,0,1,70.62,63.64Z" transform="translate(0)"/><path class="b" d="M12.08,11H5v7.08h7.08ZM9.72,15.72H7.36V13.36H9.72Z" transform="translate(0.72 0.72)"/><path class="b" d="M20.08,11H13v7.08h7.08Zm-2.36,4.72H15.36V13.36h2.36Z" transform="translate(2.16 0.72)"/><path class="b" d="M28.08,11H21v7.08h7.08Zm-2.36,4.72H23.36V13.36h2.36Z" transform="translate(3.6 0.72)"/><path class="b" d="M37,54.08h7.08V47H37Zm2.36-4.72h2.36v2.36H39.36Z" transform="translate(6.48 7.2)"/><path class="b" d="M45,54.08h7.08V47H45Zm2.36-4.72h2.36v2.36H47.36Z" transform="translate(7.92 7.2)"/><path class="b" d="M53,54.08h7.08V47H53Zm2.36-4.72h2.36v2.36H55.36Z" transform="translate(9.36 7.2)"/><path class="b" d="M5,23V39.52H35.68V23ZM33.32,37.16H7.36V25.36H33.32Z" transform="translate(0.72 2.88)"/><path class="b" d="M5,55.52H35.68V39H5ZM7.36,41.36H33.32v11.8H7.36Z" transform="translate(0.72 5.76)"/><path class="b" d="M51.16,23H37V39.52H51.16ZM48.8,37.16H39.36V25.36H48.8Z" transform="translate(6.48 2.88)"/><path class="b" d="M51,23h2.36v2.36H51Z" transform="translate(9 2.88)"/><path class="b" d="M55,23h4.72v2.36H55Z" transform="translate(9.72 2.88)"/><path class="b" d="M51,27h9.44v2.36H51Z" transform="translate(9 3.6)"/><path class="b" d="M51,31h9.44v2.36H51Z" transform="translate(9 4.32)"/><path class="b" d="M51,35h9.44v2.36H51Z" transform="translate(9 5.04)"/><path class="b" d="M37,39h2.36v2.36H37Z" transform="translate(6.48 5.76)"/><path class="b" d="M41,39H62.24v2.36H41Z" transform="translate(7.2 5.76)"/><path class="b" d="M57,43h2.36v2.36H57Z" transform="translate(10.08 6.48)"/><path class="b" d="M37,43H58.24v2.36H37Z" transform="translate(6.48 6.48)"/></g></g></svg>