<svg xmlns="http://www.w3.org/2000/svg" width="133" height="107" viewBox="0 0 133 107"><defs><style>.a{fill:#fff;opacity:0.42;}.b{fill:#2f6aa2;}</style></defs><g transform="translate(-957 -1224)"><circle class="a" cx="31" cy="31" r="31" transform="translate(1028 1224)"/><circle class="a" cx="31" cy="31" r="31" transform="translate(957 1269)"/><g transform="translate(977 1235)"><path class="b" d="M151.467,401.342a1.477,1.477,0,0,1-1.475,1.475h-26.55a1.477,1.477,0,0,1-1.475-1.475V392H120v9.342a3.446,3.446,0,0,0,3.442,3.442h26.55a3.446,3.446,0,0,0,3.442-3.442v-1.475h-1.967Z" transform="translate(-91.217 -329.783)"/><path class="b" d="M168.717,392.983h-14.75V392H152v1.967a.983.983,0,0,0,.983.983h15.733Z" transform="translate(-119.283 -329.783)"/><path class="b" d="M240.717,50.95V48.983a.983.983,0,0,0-.983-.983H224v1.967h14.75v.983Z" transform="translate(-182.433 -28.067)"/><path class="b" d="M232,426.95a2.95,2.95,0,1,0,2.95-2.95A2.95,2.95,0,0,0,232,426.95Zm3.933,0a.983.983,0,1,1-.983-.983A.983.983,0,0,1,235.933,426.95Z" transform="translate(-189.45 -357.85)"/><path class="b" d="M44.42,59.693a.983.983,0,0,0-.118-1.04l-3.718-4.647v-9.98a3.446,3.446,0,0,0-3.442-3.442H34.683V36.65h8.85a.983.983,0,0,0,.755-1.613L39.6,29.41V22.392a3.446,3.446,0,0,0-3.442-3.442H30.834a1.478,1.478,0,0,1,1.391-.983h26.55a1.477,1.477,0,0,1,1.475,1.475v3.442h1.967V19.442A3.446,3.446,0,0,0,58.775,16H32.225a3.447,3.447,0,0,0-3.407,2.95h-7.41a3.446,3.446,0,0,0-3.442,3.442V33.208a3.446,3.446,0,0,0,3.442,3.442H24.85V34.683H21.408a1.477,1.477,0,0,1-1.475-1.475V22.392a1.477,1.477,0,0,1,1.475-1.475h14.75a1.477,1.477,0,0,1,1.475,1.475v7.375a.983.983,0,0,0,.228.63l3.573,4.287H26.817V36.65h1.967v3.933H19.442A3.446,3.446,0,0,0,16,44.025V56.808a3.446,3.446,0,0,0,3.442,3.442H43.533a.983.983,0,0,0,.886-.557ZM30.75,36.65h1.967v3.933H30.75ZM19.442,58.283a1.477,1.477,0,0,1-1.475-1.475V44.025a1.477,1.477,0,0,1,1.475-1.475h17.7a1.477,1.477,0,0,1,1.475,1.475V54.35a.983.983,0,0,0,.215.615l2.655,3.319Z"/><path class="b" d="M60.724,242.886a3.933,3.933,0,0,0-3.277,1.76L53.824,243.2a2.954,2.954,0,1,0-.852,1.777l3.831,1.532q-.012.155-.012.313t.012.313l-3.831,1.532a2.942,2.942,0,1,0,.852,1.777l3.623-1.449a3.933,3.933,0,1,0,3.277-6.107Zm-9.833.983a.983.983,0,1,1,.983-.983A.983.983,0,0,1,50.89,243.869Zm0,7.867a.983.983,0,1,1,.983-.983A.983.983,0,0,1,50.89,251.736Zm9.833-2.95a1.967,1.967,0,1,1,1.967-1.967A1.967,1.967,0,0,1,60.724,248.786Z" transform="translate(-28.007 -196.402)"/><path class="b" d="M289.073,88h-17.7a3.446,3.446,0,0,0-3.442,3.442v9.98l-3.718,4.647a.983.983,0,0,0,.768,1.6h8.85v5.9h-8.85a.983.983,0,0,0-.755,1.613l4.689,5.627v7.019a3.446,3.446,0,0,0,3.442,3.442H281.7V129.3h-9.342a1.477,1.477,0,0,1-1.475-1.475V120.45a.983.983,0,0,0-.228-.63l-3.573-4.287h20.026a1.477,1.477,0,0,1,1.475,1.475v10.817a1.477,1.477,0,0,1-1.475,1.475h-3.442v1.967h3.442a3.446,3.446,0,0,0,3.442-3.442V117.008a3.446,3.446,0,0,0-3.442-3.442h-7.375v-5.9h9.342a3.446,3.446,0,0,0,3.442-3.442V91.442A3.446,3.446,0,0,0,289.073,88Zm-11.308,25.567H275.8v-5.9h1.967Zm12.783-9.342a1.477,1.477,0,0,1-1.475,1.475H267.027l2.655-3.319a.983.983,0,0,0,.216-.615V91.442a1.477,1.477,0,0,1,1.475-1.475h17.7a1.477,1.477,0,0,1,1.475,1.475Z" transform="translate(-217.515 -63.15)"/><path class="b" d="M363.256,125.021l-9.833-4.917a.983.983,0,0,0-1.423.879v9.833a.983.983,0,0,0,1.423.879l9.833-4.917a.983.983,0,0,0,0-1.759Zm-9.29,4.205v-6.651l6.651,3.326Z" transform="translate(-294.7 -91.217)"/><path class="b" d="M344.514,333.369a.983.983,0,0,0,0-.9,8.8,8.8,0,0,0-15.311,0,.983.983,0,0,0,0,.9,8.8,8.8,0,0,0,15.311,0Zm-7.656,2.5a6.711,6.711,0,0,1-5.648-2.95,6.881,6.881,0,0,1,11.3,0A6.71,6.71,0,0,1,336.858,335.867Z" transform="translate(-274.608 -273.65)"/><ellipse class="b" cx="2" cy="2.5" rx="2" ry="2.5" transform="translate(60 57)"/><path class="b" d="M74.248,75.673a.983.983,0,0,0,1.042.058l2.567-1.416,2.567,1.416a.983.983,0,0,0,1.445-1.02l-.5-3.062,2.113-2.161a.983.983,0,0,0-.555-1.659l-2.882-.44-1.3-2.758a.983.983,0,0,0-1.78,0l-1.3,2.758-2.882.44a.983.983,0,0,0-.555,1.659l2.113,2.161-.5,3.062A.983.983,0,0,0,74.248,75.673Zm2.236-6.419a.983.983,0,0,0,.742-.553l.631-1.341.631,1.341a.983.983,0,0,0,.742.553l1.505.229-1.12,1.145a.983.983,0,0,0-.267.846l.254,1.556-1.27-.7a.983.983,0,0,0-.95,0l-1.27.7.254-1.556a.983.983,0,0,0-.267-.846l-1.12-1.145Z" transform="translate(-49.075 -42.157)"/></g></g></svg>