<svg xmlns="http://www.w3.org/2000/svg" width="36" height="36" viewBox="0 0 36 36"><defs><style>.a{fill:#22405d;}.b,.d{fill:none;}.b{stroke:#22405d;}.c{stroke:none;}</style></defs><g transform="translate(0 0.162)"><g transform="translate(13.667 8.119)"><path class="a" d="M131.988,6.73V4.96a3.9,3.9,0,0,1,.037-.617,1.2,1.2,0,0,1,.168-.43.687.687,0,0,1,.424-.293,3.016,3.016,0,0,1,.779-.081h1.77V0h-2.829a4.6,4.6,0,0,0-3.527,1.165A4.908,4.908,0,0,0,127.738,4.6V6.729h-2.119v3.539h2.119V20.538h4.25V10.269h2.829l.374-3.539Z" transform="translate(-125.619)"/></g><g class="b" transform="translate(0 -0.162)"><circle class="c" cx="18" cy="18" r="18"/><circle class="d" cx="18" cy="18" r="17.5"/></g></g></svg>