<svg xmlns="http://www.w3.org/2000/svg" width="132" height="105" viewBox="0 0 132 105"><defs><style>.a{fill:#fff;opacity:0.42;}.b{fill:#2f6aa2;}</style></defs><g transform="translate(-593 -966)"><circle class="a" cx="31" cy="31" r="31" transform="translate(663 966)"/><circle class="a" cx="31" cy="31" r="31" transform="translate(593 1009)"/><g transform="translate(627.255 960.739)"><path class="b" d="M55.45,46.922H42.61A5.377,5.377,0,0,0,37.772,39.5a5.391,5.391,0,0,0-9.1-3.764,5.385,5.385,0,0,0-9.1,3.764,5.377,5.377,0,0,0-4.839,7.424H1.674A1.674,1.674,0,0,0,0,48.6V58.637A1.674,1.674,0,0,0,1.674,60.31H3.347V82.066A1.674,1.674,0,0,0,5.021,83.74H52.1a1.674,1.674,0,0,0,1.674-1.674V60.31H55.45a1.674,1.674,0,0,0,1.674-1.674V48.6a1.674,1.674,0,0,0-1.674-1.674Zm-16.136-.888a1.967,1.967,0,0,1-1.658.888H32.714l3.494-3.494h0a1.982,1.982,0,0,1,1.808-.549A2.066,2.066,0,0,1,39.315,46.033ZM50.43,73.857,34.625,60.31h5.144l10.66,9.137ZM30.721,56.963l-7.81-6.694h5.144l7.81,6.694Zm.515-19.009a2.066,2.066,0,0,1,3.155,1.3,1.983,1.983,0,0,1-.548,1.808h0l-3.494,3.494V39.612a1.967,1.967,0,0,1,.888-1.658Zm-8.279,1.3a2.062,2.062,0,0,1,3.155-1.3A1.967,1.967,0,0,1,27,39.612v4.943L23.506,41.06h0A1.983,1.983,0,0,1,22.957,39.252Zm-4.924,6.781a2.061,2.061,0,0,1,1.3-3.155,1.983,1.983,0,0,1,1.808.549h0l3.494,3.494H19.691a1.967,1.967,0,0,1-1.658-.888ZM3.347,50.269h14.42l7.81,6.694H3.347ZM6.694,80.393V60.31H29.482L50.43,78.265v2.128ZM50.43,65.039,44.912,60.31H50.43Zm3.347-8.076H41.008L33.2,50.269H53.777Z"/></g></g></svg>