<svg xmlns="http://www.w3.org/2000/svg" width="132" height="105" viewBox="0 0 132 105"><defs><style>.a{fill:#fff;opacity:0.42;}.b{fill:#2f6aa2;}</style></defs><g transform="translate(-589 -965)"><circle class="a" cx="31" cy="31" r="31" transform="translate(659 965)"/><circle class="a" cx="31" cy="31" r="31" transform="translate(589 1008)"/><g transform="translate(618.906 995.297)"><path class="b" d="M69.6,14.361H63.578V1.38A1.38,1.38,0,0,0,62.2,0H26.99a1.38,1.38,0,0,0-1.38,1.38V14.361H19.587a5.5,5.5,0,0,0-5.493,5.493V44.7a1.38,1.38,0,0,0,1.38,1.38H25.61V63.51a1.38,1.38,0,0,0,1.38,1.38H62.2a1.38,1.38,0,0,0,1.38-1.38V46.076H73.714a1.38,1.38,0,0,0,1.38-1.38V19.854A5.5,5.5,0,0,0,69.6,14.361ZM28.371,2.76H60.817v11.6H54.776V8.329a1.38,1.38,0,1,0-2.76,0v6.032H45.974V8.329a1.38,1.38,0,1,0-2.76,0v6.032H37.172V8.329a1.38,1.38,0,1,0-2.76,0v6.032H28.371ZM60.817,34.6H28.371V33.015A2.736,2.736,0,0,1,31.1,30.283H58.085a2.736,2.736,0,0,1,2.733,2.733Zm0,27.533H28.371V37.357H60.817ZM72.334,43.316H63.578v-10.3a5.5,5.5,0,0,0-5.493-5.493H31.1a5.5,5.5,0,0,0-5.493,5.493v10.3H16.854V19.854a2.736,2.736,0,0,1,2.733-2.733H69.6a2.736,2.736,0,0,1,2.733,2.733Z"/><path class="b" d="M386.446,151.836a1.449,1.449,0,1,0,1.449,1.449A1.451,1.451,0,0,0,386.446,151.836Z" transform="translate(-319.715 -130.881)"/><path class="b" d="M346.446,151.836a1.449,1.449,0,1,0,1.449,1.449A1.451,1.451,0,0,0,346.446,151.836Z" transform="translate(-285.235 -130.881)"/><path class="b" d="M168.649,400.311H146.6a1.38,1.38,0,1,0,0,2.76h22.046a1.38,1.38,0,1,0,0-2.76Z" transform="translate(-113.032 -345.064)"/><path class="b" d="M168.649,350.435H146.6a1.38,1.38,0,1,0,0,2.76h22.046a1.38,1.38,0,0,0,0-2.76Z" transform="translate(-113.032 -302.072)"/><path class="b" d="M237.5,300.56H226.473a1.38,1.38,0,1,0,0,2.76H237.5a1.38,1.38,0,1,0,0-2.76Z" transform="translate(-181.879 -259.08)"/></g></g></svg>