<svg xmlns="http://www.w3.org/2000/svg" width="25.664" height="17" viewBox="0 0 25.664 17"><defs><style>.a{fill:#22405d;}</style></defs><g transform="translate(0 -82.86)"><g transform="translate(0.01 82.86)"><g transform="translate(0 0)"><path class="a" d="M23.317,82.86H2.564A2.7,2.7,0,0,0,.12,85.545l12.823,9.1,12.818-9.1A2.7,2.7,0,0,0,23.317,82.86Z" transform="translate(-0.12 -82.86)"/></g></g><g transform="translate(0 86.662)"><g transform="translate(0 0)"><path class="a" d="M13.043,137.133a.344.344,0,0,1-.412.007L0,128.18v10.245a2.747,2.747,0,0,0,2.452,2.953H23.212a2.747,2.747,0,0,0,2.452-2.953V128.18Z" transform="translate(0 -128.18)"/></g></g></g></svg>