<svg xmlns="http://www.w3.org/2000/svg" width="541.277" height="507.744" viewBox="0 0 541.277 507.744"><defs><style>.a{fill:#e19413;}.b,.f,.m{fill:#fff;}.b,.j{opacity:0.6;}.c{opacity:0.2;}.d,.m{opacity:0.4;}.e{opacity:0.3;}.f{opacity:0.5;}.g{fill:#e4897b;}.h{fill:#263238;}.i{fill:#de5753;}.k{fill:#ce6f64;}.l{opacity:0.1;}</style></defs><g transform="translate(-48.86 -93.933)"><g transform="translate(48.86 93.933)"><path class="a" d="M48.86,150.56l358.121,51.557,48.054,48.494Z" transform="translate(-48.86 -61.605)"/><path class="b" d="M48.86,150.56l358.121,51.557,48.054,48.494Z" transform="translate(-48.86 -61.605)"/><path class="a" d="M48.86,150.56l358.121,51.557-16.62,70.125Z" transform="translate(-48.86 -61.605)"/><path class="c" d="M48.86,150.56l358.121,51.557-16.62,70.125Z" transform="translate(-48.86 -61.605)"/><path class="a" d="M336.037,101.7l20.783,97.4a9.818,9.818,0,0,1-7.54,11.64L163.787,250.322a9.834,9.834,0,0,1-11.64-7.54l-20.8-97.4a9.834,9.834,0,0,1,7.556-11.64L324.4,94.157a9.834,9.834,0,0,1,11.64,7.556Z" transform="translate(-1.889 -93.927)"/><path class="d" d="M336.037,101.7l20.783,97.4a9.818,9.818,0,0,1-7.54,11.64L163.787,250.322a9.834,9.834,0,0,1-11.64-7.54l-20.8-97.4a9.834,9.834,0,0,1,7.556-11.64L324.4,94.157a9.834,9.834,0,0,1,11.64,7.556Z" transform="translate(-1.889 -93.927)"/><path class="a" d="M330.817,95.326l-61.972,76.079a39.948,39.948,0,0,1-48.934,10.447L132.27,137.709a9.771,9.771,0,0,1,5.985-3.974L323.748,94.148a9.787,9.787,0,0,1,7.069,1.178Z" transform="translate(-1.24 -93.933)"/><path class="a" d="M48.86,150.56l295.378,70.2,46.122,51.479Z" transform="translate(-48.86 -61.605)"/><path class="b" d="M48.86,150.56l295.378,70.2,46.122,51.479Z" transform="translate(-48.86 -61.605)"/><rect class="a" width="1.571" height="38.095" transform="matrix(0.505, -0.863, 0.863, 0.505, 106.954, 157.977)"/><rect class="a" width="1.571" height="13.698" transform="matrix(0.505, -0.863, 0.863, 0.505, 154.337, 185.72)"/><path class="a" d="M48.86,150.56l295.378,70.2-57.417,69.2Z" transform="translate(-48.86 -61.605)"/><path class="a" d="M318.986,264.463a3.141,3.141,0,0,1-1.163-.22l-48.1-19.039a3.142,3.142,0,1,1,2.309-5.844L320.149,258.4a3.142,3.142,0,0,1-1.162,6.064Z" transform="translate(76.098 -11.034)"/><path class="e" d="M318.986,264.463a3.141,3.141,0,0,1-1.163-.22l-48.1-19.039a3.142,3.142,0,1,1,2.309-5.844L320.149,258.4a3.142,3.142,0,0,1-1.162,6.064Z" transform="translate(76.098 -11.034)"/><path class="a" d="M309.081,243.729a3,3,0,0,1-1.147-.236L282.092,233.2a3.142,3.142,0,1,1,2.309-5.844L310.243,237.6a3.181,3.181,0,0,1-1.162,6.127Z" transform="translate(83.16 -17.885)"/><path class="f" d="M309.081,243.729a3,3,0,0,1-1.147-.236L282.092,233.2a3.142,3.142,0,1,1,2.309-5.844L310.243,237.6a3.181,3.181,0,0,1-1.162,6.127Z" transform="translate(83.16 -17.885)"/><path class="a" d="M282.352,264.055a3.3,3.3,0,0,1-1.147-.22L234.283,245.2a3.142,3.142,0,1,1,2.309-5.844l46.923,18.568a3.142,3.142,0,0,1-1.162,6.064Z" transform="translate(55.865 -11.034)"/><path class="e" d="M282.352,264.055a3.3,3.3,0,0,1-1.147-.22L234.283,245.2a3.142,3.142,0,1,1,2.309-5.844l46.923,18.568a3.142,3.142,0,0,1-1.162,6.064Z" transform="translate(55.865 -11.034)"/></g><g transform="translate(381.595 118.34)"><path class="g" d="M377.986,164.82c4.163,8.122,7.98,16.259,11.609,24.585s7.006,16.762,9.96,25.606l1.068,3.346c.189.6.456,1.571.613,2.262s.3,1.477.377,2.136a55.472,55.472,0,0,1,.55,7.65,137.107,137.107,0,0,1-.66,14.138,226.452,226.452,0,0,1-4.273,27.051l-8.624-.958c-.11-8.844-.189-17.783-.5-26.5-.141-4.336-.393-8.687-.833-12.772a47.949,47.949,0,0,0-.943-5.7c-.079-.44-.2-.77-.3-1.131s-.188-.487-.346-.958L384.49,220.6c-3.283-7.949-6.975-15.96-10.745-23.941l-11.4-23.941Z" transform="translate(-202.626 -77.87)"/><path class="g" d="M380.6,230.42l-4.022,7.525,12.85,3.582s2.451-6.048-.471-10.824Z" transform="translate(-194.496 -40.418)"/><path class="g" d="M373.45,246.049l11.813.943,5.954-8.2-12.85-3.582Z" transform="translate(-196.283 -37.684)"/><path class="h" d="M338.671,130.945c-.173.927-.817,1.571-1.414,1.445s-.927-.958-.738-1.869.817-1.571,1.414-1.445S338.876,130.034,338.671,130.945Z" transform="translate(-217.397 -98.286)"/><path class="i" d="M339.574,131.26a33.526,33.526,0,0,1-5.954,6.928,5.4,5.4,0,0,0,4.194,1.7Z" transform="translate(-219.022 -97.03)"/><path class="h" d="M342.325,128.473a.566.566,0,0,1-.393-.173,4.367,4.367,0,0,0-3.66-1.477.55.55,0,0,1-.189-1.068,5.341,5.341,0,0,1,4.713,1.807.55.55,0,0,1,0,.77A.566.566,0,0,1,342.325,128.473Z" transform="translate(-216.683 -100.197)"/><path class="g" d="M363.857,138.43c-1.649,8.451-3.3,23.909,2.608,29.549,0,0-2.309,8.561-18,8.561-17.28,0-8.232-8.561-8.232-8.561,9.425-2.246,9.158-9.237,7.525-15.788Z" transform="translate(-216.6 -92.936)"/><path class="h" d="M368.759,165.093c1.241-4.132,2.608-8.86-.22-10.352-3.142-1.571-20.218-3.3-26.109-.236s-4.21,11.468-4.21,11.468Z" transform="translate(-216.522 -84.725)"/><path class="a" d="M381.721,411a3.691,3.691,0,0,1-2.765-.754,1.115,1.115,0,0,1,0-1.3,1.3,1.3,0,0,1,.864-.644c1.7-.377,4.87,1.791,5.011,1.885a.314.314,0,0,1,.11.283.251.251,0,0,1-.2.2,14.681,14.681,0,0,1-3.016.33Zm-1.445-2.2h-.33a.738.738,0,0,0-.5.377c-.251.44-.094.628,0,.691.487.66,2.843.66,4.571.377a9.082,9.082,0,0,0-3.739-1.414Z" transform="translate(-193.259 61.108)"/><path class="a" d="M383.759,411.707h-.126c-1.194-.66-3.5-3.142-3.267-4.461a.9.9,0,0,1,.88-.723,1.571,1.571,0,0,1,1.162.346c1.335,1.1,1.571,4.43,1.571,4.571a.251.251,0,0,1-.126.251A.218.218,0,0,1,383.759,411.707Zm-2.325-4.713h-.063c-.361,0-.393.22-.408.283-.141.77,1.335,2.671,2.513,3.566a6.581,6.581,0,0,0-1.351-3.613,1.006,1.006,0,0,0-.754-.2Z" transform="translate(-192.344 60.116)"/><path class="a" d="M337.832,411.01c-1.477,0-2.906-.2-3.393-.864a1.037,1.037,0,0,1,0-1.194,1.382,1.382,0,0,1,.88-.644c1.9-.518,5.954,1.775,6.127,1.869a.283.283,0,0,1,.126.283.267.267,0,0,1-.22.22,19.12,19.12,0,0,1-3.519.33Zm-1.838-2.231a1.812,1.812,0,0,0-.518,0,.8.8,0,0,0-.534.377c-.2.346-.126.5,0,.6.518.723,3.44.77,5.608.471a12.363,12.363,0,0,0-4.556-1.414Z" transform="translate(-218.663 61.096)"/><path class="a" d="M340.227,411.712h-.11c-1.4-.613-4.147-3.142-3.943-4.414,0-.314.267-.691,1.021-.77a1.917,1.917,0,0,1,1.571.471c1.477,1.194,1.775,4.3,1.791,4.446a.24.24,0,0,1-.33.267ZM337.415,407h-.173c-.487,0-.518.251-.534.314-.126.785,1.759,2.749,3.142,3.6a6.284,6.284,0,0,0-1.571-3.55,1.367,1.367,0,0,0-.8-.33Z" transform="translate(-217.57 60.111)"/><path class="g" d="M351.443,419.351H339.9L338.75,392.63H350.3Z" transform="translate(-216.093 52.189)"/><path class="g" d="M397.243,419.351H385.7l-5.8-26.721h11.531Z" transform="translate(-192.6 52.189)"/><path class="h" d="M389.619,408.79h12.96a1.021,1.021,0,0,1,.99.8l2.278,10.258a1.7,1.7,0,0,1-1.7,2.042c-4.524-.079-6.724-.346-12.426-.346-3.5,0-10.729.377-15.583.377s-5.467-4.713-3.487-5.231c8.891-1.948,12.237-4.634,15.081-7.179A2.8,2.8,0,0,1,389.619,408.79Z" transform="translate(-197.34 61.415)"/><path class="h" d="M349.671,408.79h12.567a1.021,1.021,0,0,1,.99.8l2.278,10.258a1.681,1.681,0,0,1-1.665,2.042c-4.54-.079-11.106-.346-16.824-.346-6.676,0-12.457.377-20.3.377-4.713,0-6.048-4.713-4.069-5.231,9.033-1.979,16.4-2.184,24.208-6.991a5.278,5.278,0,0,1,2.812-.911Z" transform="translate(-225.789 61.415)"/><path class="g" d="M373.166,190.659a265.756,265.756,0,0,1-28.763-3.817c-4.713-.911-9.52-1.932-14.3-3.22a114.888,114.888,0,0,1-14.39-4.713c-1.21-.5-2.435-1.053-3.645-1.571a32.153,32.153,0,0,1-3.927-2.294c-2.262-1.492-4.21-3.048-6.142-4.587-3.849-3.142-7.415-6.284-11-9.5-7.022-6.5-13.683-13.227-20.108-20.3l5.781-6.456,22.794,16.385c3.754,2.7,7.556,5.357,11.295,7.855,1.854,1.241,3.754,2.4,5.5,3.393a19.1,19.1,0,0,0,2.262,1.1c.927.361,1.869.723,2.859,1.068a169.656,169.656,0,0,0,25.967,5.812c8.97,1.414,18.238,2.576,27.193,3.519Z" transform="translate(-254.83 -95.351)"/><path class="a" d="M374.7,159.028c10.824,2.482,21.757,34.1,21.757,34.1L374.2,209.108s-6.284-14.735-12.347-27.617C355.5,168,363.64,156.5,374.7,159.028Z" transform="translate(-204.177 -81.377)"/><path class="d" d="M374.7,159.028c10.824,2.482,21.757,34.1,21.757,34.1L374.2,209.108s-6.284-14.735-12.347-27.617C355.5,168,363.64,156.5,374.7,159.028Z" transform="translate(-204.177 -81.377)"/><path class="a" d="M366.854,169.9l-4.414,9.881c4.571,9.865,8.75,19.636,9.865,22.244C372.148,190.353,369.933,175.869,366.854,169.9Z" transform="translate(-202.568 -74.97)"/><path class="j" d="M366.854,169.9l-4.414,9.881c4.571,9.865,8.75,19.636,9.865,22.244C372.148,190.353,369.933,175.869,366.854,169.9Z" transform="translate(-202.568 -74.97)"/><path class="a" d="M330.131,160.582s-12.285,13.871-.691,99.753h61.721c.44-9.425-5.514-55.7,3.613-100.35a161.108,161.108,0,0,0-20.657-2.608,228.212,228.212,0,0,0-26.234,0,115.464,115.464,0,0,0-17.751,3.2Z" transform="translate(-224.251 -82.335)"/><path class="d" d="M330.131,160.582s-12.285,13.871-.691,99.753h61.721c.44-9.425-5.514-55.7,3.613-100.35a161.108,161.108,0,0,0-20.657-2.608,228.212,228.212,0,0,0-26.234,0,115.464,115.464,0,0,0-17.751,3.2Z" transform="translate(-224.251 -82.335)"/><path class="a" d="M325.5,169.9c-.408,3.252-.723,7.1-.927,11.64a64.532,64.532,0,0,0,17.186-8.075Z" transform="translate(-224.189 -74.97)"/><path class="j" d="M325.5,169.9c-.408,3.252-.723,7.1-.927,11.64a64.532,64.532,0,0,0,17.186-8.075Z" transform="translate(-224.189 -74.97)"/><path class="a" d="M356.844,179.706c-8.263,7.32-39.807,6.582-39.807,6.582L316,155.75a232.76,232.76,0,0,0,32.157,2.325C365.735,157.714,365.861,171.632,356.844,179.706Z" transform="translate(-229.082 -83.048)"/><path class="d" d="M356.844,179.706c-8.263,7.32-39.807,6.582-39.807,6.582L316,155.75a232.76,232.76,0,0,0,32.157,2.325C365.735,157.714,365.861,171.632,356.844,179.706Z" transform="translate(-229.082 -83.048)"/><path class="g" d="M280.7,137.6l-7.855-9.253-8.467,9.425s5.215,8.766,13.494,7.383Z" transform="translate(-258.552 -98.691)"/><path class="g" d="M263.717,121.48l-3.047,12.08,5.765,8.074,8.467-9.363Z" transform="translate(-260.67 -102.613)"/><path class="k" d="M338.75,392.64l.6,13.761h11.546l-.6-13.761Z" transform="translate(-216.093 52.195)"/><path class="k" d="M391.446,392.64H379.9l2.985,13.761h11.546Z" transform="translate(-192.6 52.195)"/><path class="h" d="M345.849,130.724c-10.352-4.713-13.62-25.653,16.165-20.422,0,0-4.493,4.964,4.618,8.106S368.125,140.951,345.849,130.724Z" transform="translate(-216.249 -109.47)"/><path class="g" d="M370.017,140.214c-2.969,11-4.132,17.688-11,22.291-10.274,6.912-23.045-1.021-23.454-12.756-.361-10.541,4.556-26.863,16.416-29.093a15.615,15.615,0,0,1,18.034,19.558Z" transform="translate(-217.921 -103.25)"/><path class="h" d="M358.126,114.131c7.053,3.927,16.6,6.284,15.709,11.876-1.178,6.833,5.765,2.561,4.147,12.724-1.053,6.645-13.306,26.784-21.993,25.81-12.976-1.571-11.326-21.3-11.373-31.7C344.585,126.7,344.3,106.386,358.126,114.131Z" transform="translate(-212.77 -107.8)"/><path class="h" d="M344.814,119.11c-3.142.738-7.3,18.851,4.87,20.516C363.68,141.527,344.814,119.11,344.814,119.11Z" transform="translate(-214.522 -103.966)"/><path class="h" d="M348.022,127.294c-3.849.346-12.567-4.289-11.5-11.263C336.523,115.983,342.037,124.183,348.022,127.294Z" transform="translate(-217.416 -105.725)"/><path class="g" d="M351.193,135.253a12.9,12.9,0,0,1-5.7,6.048c-3.315,1.728-5.184-.785-4.43-4.116.675-2.985,3.22-7.493,6.629-7.855S352.559,132.111,351.193,135.253Z" transform="translate(-214.869 -98.148)"/><path class="h" d="M358.45,129.185a15.473,15.473,0,0,0,9.08-11.515S372.714,132.075,358.45,129.185Z" transform="translate(-204.846 -104.788)"/><path class="h" d="M369.519,126.056a7.965,7.965,0,0,0-7.509-.738S366.848,119.049,369.519,126.056Z" transform="translate(-202.814 -101.895)"/><path class="a" d="M341.57,222.8s13.1,88.191,20.28,121.227c7.855,36.131,37.545,156.714,37.545,156.714h21.129S400.966,383.13,396.473,347.25c-4.87-38.88-15.081-124.51-15.081-124.51Z" transform="translate(-214.483 -44.803)"/><path class="f" d="M341.57,222.8s13.1,88.191,20.28,121.227c7.855,36.131,37.545,156.714,37.545,156.714h21.129S400.966,383.13,396.473,347.25c-4.87-38.88-15.081-124.51-15.081-124.51Z" transform="translate(-214.483 -44.803)"/><path class="a" d="M376.231,394.75c-.094,0,2.184,8.122,2.184,8.122H402.2l-.44-7.242Z" transform="translate(-194.697 53.4)"/><path class="l" d="M376.231,394.75c-.094,0,2.184,8.122,2.184,8.122H402.2l-.44-7.242Z" transform="translate(-194.697 53.4)"/><path class="a" d="M348.079,242.825c15.144,2.969,13.541,59.443,11.719,88.489-4.367-20.532-10.761-60.04-15.128-88.081A5.169,5.169,0,0,1,348.079,242.825Z" transform="translate(-212.714 -33.407)"/><path class="m" d="M348.079,242.825c15.144,2.969,13.541,59.443,11.719,88.489-4.367-20.532-10.761-60.04-15.128-88.081A5.169,5.169,0,0,1,348.079,242.825Z" transform="translate(-212.714 -33.407)"/><path class="a" d="M327.923,222.78s-1.571,86.274-.33,121.479c1.3,36.6,14.138,156.463,14.138,156.463h19.542S362,383,362.845,347.055c.958-39.194,5.687-124.275,5.687-124.275Z" transform="translate(-222.735 -44.78)"/><path class="f" d="M327.923,222.78s-1.571,86.274-.33,121.479c1.3,36.6,14.138,156.463,14.138,156.463h19.542S362,383,362.845,347.055c.958-39.194,5.687-124.275,5.687-124.275Z" transform="translate(-222.735 -44.78)"/><path class="a" d="M343.81,484.337a.188.188,0,0,1-.188-.173c-3.456-33.178-11.578-113.451-12.567-142.246-1.053-29.392-.094-95.339.22-114.849a.189.189,0,0,1,.189-.188h0a.2.2,0,0,1,.2.188c-.314,19.511-1.272,85.458-.22,114.834,1.021,28.795,9.143,109.037,12.567,142.215a.22.22,0,0,1-.189.22Z" transform="translate(-220.761 -42.439)"/><path class="m" d="M343.81,484.337a.188.188,0,0,1-.188-.173c-3.456-33.178-11.578-113.451-12.567-142.246-1.053-29.392-.094-95.339.22-114.849a.189.189,0,0,1,.189-.188h0a.2.2,0,0,1,.2.188c-.314,19.511-1.272,85.458-.22,114.834,1.021,28.795,9.143,109.037,12.567,142.215a.22.22,0,0,1-.189.22Z" transform="translate(-220.761 -42.439)"/><path class="a" d="M334,394.75c-.078,0,1.115,8.122,1.115,8.122h23.768l.644-7.242Z" transform="translate(-218.806 53.4)"/><path class="l" d="M334,394.75c-.078,0,1.115,8.122,1.115,8.122h23.768l.644-7.242Z" transform="translate(-218.806 53.4)"/></g></g></svg>