<svg xmlns="http://www.w3.org/2000/svg" width="18.492" height="18.531" viewBox="0 0 18.492 18.531"><defs><style>.a{fill:#22405d;}</style></defs><g transform="translate(-0.539 0)"><g transform="translate(0.539 0)"><path class="a" d="M18.546,13.6,15.96,11.014a1.72,1.72,0,0,0-2.863.647,1.76,1.76,0,0,1-2.032,1.108,7.975,7.975,0,0,1-4.8-4.8A1.674,1.674,0,0,1,7.371,5.934a1.72,1.72,0,0,0,.647-2.863L5.431.485a1.845,1.845,0,0,0-2.494,0L1.183,2.24c-1.755,1.847.185,6.742,4.526,11.083s9.236,6.373,11.083,4.526l1.755-1.755A1.845,1.845,0,0,0,18.546,13.6Z" transform="translate(-0.539 0)"/></g></g></svg>