<svg xmlns="http://www.w3.org/2000/svg" width="233.604" height="393.762" viewBox="0 0 233.604 393.762"><defs><style>.a{fill:#263238;}.b{fill:#ffbe9d;}.c{fill:#eb996e;}.d{fill:#f2af3e;}.e{fill:#455a64;}.f{fill:#fff;}.g{fill:#fafafa;}.h{fill:#e19413;}.i{opacity:0.3;}</style></defs><g transform="translate(-45.87 -228.015)"><g transform="translate(53.278 621.223)"><path class="a" d="M31.79,472.6c0,.149,48.98.277,109.39.277s109.4-.128,109.4-.277-48.97-.277-109.4-.277S31.79,472.448,31.79,472.6Z" transform="translate(-31.79 -472.32)"/></g><g transform="translate(45.87 228.015)"><path class="a" d="M297.141,128.717a28.611,28.611,0,0,0-13.7-17.343c-7.3-3.987-16.117-4.562-24.272-2.931s-15.755,5.33-22.961,9.5c-4.04,2.334-8.069,4.9-10.969,8.528-5.33,6.662-6.023,15.755-6.534,24.262-.416,6.876-.767,14.081,2.132,20.317a21.149,21.149,0,0,0,14.241,11.6" transform="translate(-157.342 -103.173)"/><path class="a" d="M275.661,163.464a45.506,45.506,0,0,1-10.948-33.791c.384-4.072,1.5-8.389,4.637-11.022,1.6-1.343,3.6-2.132,5.234-3.443,2.974-2.377,4.434-6.225,7.259-8.773a11.555,11.555,0,0,1,18.846,5.33c1.482,5.159-.735,10.6-2.91,15.51q-5.053,11.385-10.095,22.769a30.4,30.4,0,0,1-4.637,8.08c-2.079,2.324-5.1,4.04-8.2,3.763" transform="translate(-210.523 -103.447)"/><path class="a" d="M226,122.989a39.174,39.174,0,0,1,3.443,48.779,328.726,328.726,0,0,0-17.5-54.578" transform="translate(-89.642 -102.54)"/><path class="b" d="M286.068,148.22c-.885-13.538-9.892-30.124-23.377-28.675l-31.2,7.952c-10.009,2.558-16.682,11.011-17.418,21.319,0,.522-.085-.107-.075.277l2.249,81.739a24.411,24.411,0,0,0,24.912,23.686h0a24.4,24.4,0,0,0,23.867-24.368V215.824c0,.032,17.333-2.91,20.9-25.434C287.645,179.123,287,163.25,286.068,148.22Z" transform="translate(-142.474 -102.391)"/><path class="c" d="M231.6,139.822a24.263,24.263,0,0,0,6.534,1.343,23.739,23.739,0,0,0,6.684,0c0-.171-2.974-.181-6.62-.554S231.675,139.662,231.6,139.822Z" transform="translate(-119.058 -101.049)"/><path class="c" d="M231.56,139.061a10.948,10.948,0,0,0,4.072.746,10.564,10.564,0,0,0,4.115-.309,28.218,28.218,0,0,0-4.093-.245,26.99,26.99,0,0,0-4.093-.192Z" transform="translate(-113.944 -101.098)"/><path class="c" d="M245.2,181.146c.149,0,.352-.906,1.258-1.482a7.006,7.006,0,0,1,1.855-.586c.043-.139-.192-.224-.608-.277a2.345,2.345,0,0,0-1.556.394,2.4,2.4,0,0,0-.97,1.279C245.076,180.847,245.14,181.146,245.2,181.146Z" transform="translate(-136.979 -98.476)"/><path class="a" d="M227.7,162.972a2.9,2.9,0,0,1-2.782,2.931,2.782,2.782,0,0,1-3-2.6,2.9,2.9,0,0,1,2.782-2.931,2.772,2.772,0,0,1,3,2.6Z" transform="translate(-91.619 -99.692)"/><path class="a" d="M229.991,155.607c-.352.384-2.548-1.237-5.671-1.226s-5.383,1.578-5.724,1.2c-.171-.171.192-.853,1.194-1.578a7.931,7.931,0,0,1,4.584-1.428,7.59,7.59,0,0,1,4.509,1.45C229.842,154.755,230.172,155.437,229.991,155.607Z" transform="translate(-90.374 -100.205)"/><path class="a" d="M255.767,162.971a2.889,2.889,0,0,1-2.782,2.931A2.772,2.772,0,0,1,250,163.3a2.878,2.878,0,0,1,2.782-2.931,2.771,2.771,0,0,1,2.985,2.6Z" transform="translate(-149.621 -99.692)"/><path class="a" d="M258.711,156.187c-.362.384-2.558-1.237-5.671-1.226s-5.394,1.578-5.735,1.2c-.16-.171.2-.853,1.194-1.578a7.952,7.952,0,0,1,4.584-1.428,7.632,7.632,0,0,1,4.52,1.45C258.562,155.367,258.882,156.049,258.711,156.187Z" transform="translate(-149.698 -100.167)"/><path class="a" d="M230.794,179.275c0-.171,1.919-.512,5.053-.917.8-.085,1.546-.245,1.684-.789a4.051,4.051,0,0,0-.544-2.356l-2.356-6.055c-3.294-8.613-5.671-15.691-5.33-15.819s3.294,6.748,6.577,15.361q1.183,3.2,2.26,6.087a4.531,4.531,0,0,1,.426,3.113,2,2,0,0,1-1.311,1.173,6.064,6.064,0,0,1-1.343.192C232.766,179.435,230.805,179.456,230.794,179.275Z" transform="translate(-110.429 -100.155)"/><path class="c" d="M234.57,202.33s7.334,15.5,29.922,13.335v-5.33a56.784,56.784,0,0,1-29.922-8.005Z" transform="translate(-141.898 -96.923)"/><path class="d" d="M246.877,184.851a5.628,5.628,0,0,0-5.042-2.079,5.117,5.117,0,0,0-3.528,1.908,3.2,3.2,0,0,0-.234,3.71,3.752,3.752,0,0,0,4.083,1.066,11.822,11.822,0,0,0,3.976-2.388,3.443,3.443,0,0,0,.885-.917,1.066,1.066,0,0,0,0-1.162" transform="translate(-127.811 -98.216)"/><path class="a" d="M236.434,179.71c.5,0,.512,3.347,3.411,5.746s6.5,2.015,6.524,2.484c.053.213-.8.661-2.324.7a8.357,8.357,0,0,1-5.436-1.887,7.3,7.3,0,0,1-2.654-4.808C235.826,180.531,236.2,179.7,236.434,179.71Z" transform="translate(-125.224 -98.416)"/><path class="a" d="M260.8,147.622c-.3.842-3.411.448-7.067.9s-6.6,1.45-7.089.693c-.213-.362.3-1.162,1.482-1.983a12.461,12.461,0,0,1,10.788-1.183C260.253,146.556,260.935,147.217,260.8,147.622Z" transform="translate(-151.037 -100.684)"/><path class="a" d="M230.226,147.2c-.544.714-2.7,0-5.277-.053s-4.765.49-5.266-.245c-.224-.362.128-1.066,1.066-1.738a7.238,7.238,0,0,1,4.264-1.173,7.387,7.387,0,0,1,4.264,1.407C230.162,146.133,230.46,146.826,230.226,147.2Z" transform="translate(-91.77 -100.773)"/><path class="a" d="M291.762,128.144c-1.386-3.39-5.106-5.426-8.773-5.618a19.294,19.294,0,0,0-10.4,3.038c-13.442,7.76-21,23.2-34.271,31.233-3.273,1.972-6.876,3.5-9.647,6.119s-4.584,6.8-3.049,10.3a31.864,31.864,0,0,1-4.605-7.792,10.66,10.66,0,0,1,.373-8.794c1.151-1.993,3.2-3.518,3.731-5.746.49-1.961-.277-4.008-.192-6.033a13.133,13.133,0,0,1,2.068-5.756c5.2-9.2,12.355-17.514,21.565-22.695a38.215,38.215,0,0,1,19.806-5.117,29.261,29.261,0,0,1,18.846,7.462c2.963,2.772,6.087,5.639,4.552,9.391" transform="translate(-154.298 -102.93)"/><path class="e" d="M223.052,173.163s-.256-.309-.7-.917a9.946,9.946,0,0,1-1.46-2.942,16.778,16.778,0,0,1,1.237-11.811c1.066-2.366,2.462-4.8,3.933-7.462a85.732,85.732,0,0,0,4.136-8.8,62.571,62.571,0,0,1,4.722-9.594,37.6,37.6,0,0,1,7.462-8.592,39.676,39.676,0,0,1,19.806-9.125c6.726-1,13.037,0,17.578,2.377a19.113,19.113,0,0,1,8.453,8.432,17.116,17.116,0,0,1,1.173,3.091c.181.736.256,1.13.277,1.13a1.255,1.255,0,0,0,0-.3,4.613,4.613,0,0,0-.149-.853,16,16,0,0,0-1.066-3.2,19.188,19.188,0,0,0-8.528-8.688c-4.6-2.484-11.011-3.528-17.823-2.537A39.953,39.953,0,0,0,242,122.583a37.918,37.918,0,0,0-7.579,8.72,63.006,63.006,0,0,0-4.733,9.658,87.8,87.8,0,0,1-4.072,8.784c-1.45,2.665-2.878,5.127-3.88,7.526-2.132,4.776-2.068,9.3-1.066,12.035a9.22,9.22,0,0,0,1.578,2.942A5.629,5.629,0,0,0,223.052,173.163Z" transform="translate(-151.55 -102.816)"/><path class="e" d="M264.551,161.438a2.454,2.454,0,0,0,0-.64c0-.48,0-1.066-.064-1.844-.064-1.588-.139-3.9-.053-6.748a57.562,57.562,0,0,1,1.066-9.924,26.467,26.467,0,0,1,4.861-11.054,61.183,61.183,0,0,1,8.666-8.624c2.846-2.473,5.511-4.584,7.824-6.247s4.264-2.9,5.65-3.71l1.588-.917a3.038,3.038,0,0,0,.544-.352,4.122,4.122,0,0,0-.6.245c-.384.181-.938.458-1.642.842a60.379,60.379,0,0,0-5.767,3.571c-2.356,1.631-5.053,3.72-7.942,6.183a59.29,59.29,0,0,0-8.762,8.666,26.649,26.649,0,0,0-4.893,11.289,54.7,54.7,0,0,0-.981,10.02c0,2.867.085,5.181.213,6.78.064.8.128,1.418.181,1.833A2.571,2.571,0,0,0,264.551,161.438Z" transform="translate(-203.464 -102.923)"/><path class="e" d="M282.991,107.2a9.593,9.593,0,0,0-.629,2.558,29.847,29.847,0,0,0,.757,12.632,9.3,9.3,0,0,0,.927,2.473,65.021,65.021,0,0,1-1.428-8.784,63.946,63.946,0,0,1,.373-8.88Z" transform="translate(-212.022 -103.199)"/><path class="e" d="M287.99,122.88a4.871,4.871,0,0,0,.768,1.887,12.162,12.162,0,0,0,7.739,5.682,5.084,5.084,0,0,0,2.025.171,15.876,15.876,0,0,0-1.929-.554,14.114,14.114,0,0,1-4.264-2.132,14.379,14.379,0,0,1-3.283-3.4,16.359,16.359,0,0,0-1.055-1.652Z" transform="translate(-232.872 -102.165)"/><path class="e" d="M290.53,137.128a11.107,11.107,0,0,0,8.933-.256c-.053-.181-2.015.426-4.456.512S290.562,136.947,290.53,137.128Z" transform="translate(-236.521 -101.244)"/><path class="a" d="M230.105,177.61c.533-.266.267-1.759.2-4.179a11.5,11.5,0,0,1,.469-3.955,6.5,6.5,0,0,1,.416-.917,2.561,2.561,0,0,1,.267-.394c.075-.128.245-.352.373-.533a17.625,17.625,0,0,1,1.855-2.132,5.671,5.671,0,0,1,1.951-1.364c.245-.085.3,0,.192,0l.789.16.853.192a15.244,15.244,0,0,1,3.2,1.215,16.79,16.79,0,0,1,1.61.927l.416.256.693.416c.48.256.949.48,1.439.682a14.464,14.464,0,0,0,6.342,1.066,10.287,10.287,0,0,0,3.806-.949l.49-.245.384-.234c.256-.16.533-.309.768-.49a11.9,11.9,0,0,0,1.4-1.119,18.43,18.43,0,0,0,3.869-5.266c.917-1.791,1.6-3.539,2.26-5.127a59.419,59.419,0,0,1,9.69-15.926,63.745,63.745,0,0,1,11.321-10.478,36.03,36.03,0,0,1,8.89-5.106c2.249-.842,3.71-1.066,3.795-1.663s-1.332-1.46-4.264-1.546-7.121,1-11.459,3.273a52.691,52.691,0,0,0-13.943,10.361,56.5,56.5,0,0,0-11.726,17.908c-.693,1.706-1.29,3.2-1.94,4.562a11.268,11.268,0,0,1-2.047,3.049c-.181.181-.362.33-.544.48s-.192.117-.277.192l-.139.1h-.064a2.451,2.451,0,0,1-.917.277,7.26,7.26,0,0,1-2.974-.32l-.672-.256-.288-.139-.576-.309a25,25,0,0,0-2.356-1.066,21.32,21.32,0,0,0-4.914-1.311l-1.162-.128h-1.2a6.609,6.609,0,0,0-3.571.853,11.225,11.225,0,0,0-3.614,3.347,20.092,20.092,0,0,0-1.951,3.3c-.128.288-.234.5-.362.842a7.152,7.152,0,0,0-.341.981,9.469,9.469,0,0,0-.341,1.865,11.725,11.725,0,0,0,.959,5.49C228.325,176.842,229.636,177.866,230.105,177.61Z" transform="translate(-166.289 -102.296)"/><path class="b" d="M291.672,162.415c-.234-.65-12-4.893-12.163,7.611-.149,12.163,12.109,9.764,12.141,9.423S291.672,162.415,291.672,162.415Z" transform="translate(-216.983 -99.637)"/><path class="c" d="M288.384,174.6c-.053,0-.213.149-.576.309a2.132,2.132,0,0,1-1.578,0c-1.279-.49-2.345-2.537-2.388-4.722a7.046,7.046,0,0,1,.629-3.027,2.43,2.43,0,0,1,1.61-1.61,1.066,1.066,0,0,1,1.237.522c.16.341.085.586.149.608s.266-.2.171-.7a1.4,1.4,0,0,0-.469-.768,1.663,1.663,0,0,0-1.173-.32,2.953,2.953,0,0,0-2.228,1.865,7.206,7.206,0,0,0-.768,3.379c.053,2.452,1.29,4.754,3.038,5.33a2.281,2.281,0,0,0,1.94-.3C288.384,174.857,288.384,174.6,288.384,174.6Z" transform="translate(-217.416 -99.394)"/><path class="e" d="M222.512,164.923a4.651,4.651,0,0,1,.512-.821,4.733,4.733,0,0,1,2.185-1.61,8.8,8.8,0,0,1,4.264-.384,20.849,20.849,0,0,1,5.458,1.961c1.961.874,4.264,1.951,6.918,1.759a11.118,11.118,0,0,0,7.185-3.848,22.386,22.386,0,0,0,4.264-7.963c1.013-2.974,1.929-6.076,3.2-9.146a46.9,46.9,0,0,1,9.594-15.8,26.969,26.969,0,0,1,12.866-7.59,23.334,23.334,0,0,1,5.756-.736,20.849,20.849,0,0,1,4.36.522,34.969,34.969,0,0,1,3.571,1.173l-.224-.128-.65-.309a15.011,15.011,0,0,0-2.644-.949,20.6,20.6,0,0,0-4.413-.618,23.323,23.323,0,0,0-5.852.661,27.139,27.139,0,0,0-13.143,7.622,47.1,47.1,0,0,0-9.722,15.99c-1.236,3.091-2.132,6.225-3.145,9.167a22.194,22.194,0,0,1-4.168,7.8,10.66,10.66,0,0,1-6.833,3.731c-2.516.2-4.765-.81-6.726-1.652a20.252,20.252,0,0,0-5.575-1.908,8.837,8.837,0,0,0-4.424.48,4.627,4.627,0,0,0-2.132,1.748,2.763,2.763,0,0,0-.341.65C222.533,164.838,222.5,164.912,222.512,164.923Z" transform="translate(-157.193 -102.326)"/><path class="e" d="M222.65,159.016a5.05,5.05,0,0,0,.735-.405c.458-.3,1.173-.693,2.036-1.3a42.02,42.02,0,0,0,6.556-5.969A115.2,115.2,0,0,0,240,140.916a95.367,95.367,0,0,1,10.031-12.493,38.021,38.021,0,0,1,6.47-5.106,30.914,30.914,0,0,1,6.993-3.2,34.634,34.634,0,0,1,12.877-1.578A32.736,32.736,0,0,1,285,120.225c1,.309,1.738.64,2.249.831a6,6,0,0,0,.8.288,5.085,5.085,0,0,0-.757-.384,20.328,20.328,0,0,0-2.217-.938,31.629,31.629,0,0,0-8.666-1.876,34.292,34.292,0,0,0-13.058,1.482,31.9,31.9,0,0,0-7.121,3.2,38.866,38.866,0,0,0-6.588,5.181A93.807,93.807,0,0,0,239.588,140.6a123.825,123.825,0,0,1-7.9,10.457,45.755,45.755,0,0,1-6.4,6.065c-.831.629-1.524,1.066-1.972,1.375a5.117,5.117,0,0,0-.672.522Z" transform="translate(-152.747 -102.484)"/><path class="f" d="M285.3,176a2.462,2.462,0,0,0-2.75,1.769,2.388,2.388,0,1,0,3.326-1.588" transform="translate(-215.724 -98.662)"/><path class="a" d="M285.959,176.17a3.2,3.2,0,0,1,1.066,1.631,2.132,2.132,0,0,1-.469,1.908,2.3,2.3,0,0,1-2.271.65,2.27,2.27,0,0,1-1.471-1.844,2.068,2.068,0,0,1,.714-1.834,3.251,3.251,0,0,1,1.833-.693,1.09,1.09,0,0,0-.565-.139,2.548,2.548,0,0,0-2.494,2.729,2.739,2.739,0,0,0,1.812,2.3,2.708,2.708,0,0,0,2.814-.831,2.431,2.431,0,0,0,.48-2.356,2.473,2.473,0,0,0-.938-1.311C286.183,176.17,285.97,176.138,285.959,176.17Z" transform="translate(-215.811 -98.67)"/><path class="b" d="M271.085,222.021c3,.736,6.652,1.695,6.652,1.695l15.3,37.106.661,28.44-30.913,27-39.356-36.957-3.806-40.987L223.777,217Z" transform="translate(-155.164 -95.956)"/><path class="a" d="M303.746,366.078l-90.608-6.588s-38.983,16.714-38.983,94.616v25.935h167.73s6.279-86.642-35.55-113.963" transform="translate(-155.228 -86.555)"/><path class="g" d="M232.849,263.239,212.83,289.366l32.757,81.408,58.031,1.29-5.127-103.879-8.858-6.876c.842,3.827.917,11.417-1.588,15.808s-6.534,7.675-10.457,10.862-7.909,6.534-10.308,10.99c.97-5.66-2.878-11.15-7.59-14.433s-10.308-5.01-15.329-7.792-10.713-7.8-11.513-13.485" transform="translate(-157.851 -93.032)"/><path class="h" d="M205.572,233.165l-24.858-7-5.532-10.532-.981,6.908s2.921,9.381,2.654,8.528c-1.631-5.436,9.285,38.524,9.285,38.524S193.6,303.8,193.6,310.1s1.674,51.316,1.674,51.316l11.139,105.744s33.354-24.858,33.354-31.542c0-2-2.718-20.094-4.541-25.722-5.81-17.919-8.528-26.287-18.122-42.479L208,351.85l13.655-32.214L214.5,254.122Z" transform="translate(-52.821 -96.046)"/><path class="h" d="M178.672,320.716c.831-7.515-4.264-67.679-4.264-67.679l-8.933-20.957s10.606,2.132,12.269,3.848,7.952,7.206,10.436,11.267c22.13,36.243,20.786,82.463,20.786,82.463-.65,2.4-6.4,37.074-5.767,33.1L187.21,378.3l-14.487-14.284,1.247-17.109S177.83,328.22,178.672,320.716Z" transform="translate(-12.736 -94.961)"/><path class="a" d="M201.111,225.51a2.868,2.868,0,0,0,.426.224l1.279.608,4.925,2.292c4.328,1.961,10.521,4.786,18.121,8.272l-.085-.309-7.8,11.971-.181.266.309.1,13.037,3.752-.192-.245c0,8.187,0,17.13-.235,26.436-.565,22.471-.949,43.044-5.873,57.115-1.929,7.121-3.635,12.845-4.818,16.8-.586,1.951-1.066,3.475-1.375,4.541-.149.5-.256.9-.352,1.183a2.131,2.131,0,0,0-.1.416,1.847,1.847,0,0,0,.149-.394l.405-1.173c.352-1.066.842-2.569,1.482-4.509,1.247-3.944,3.006-9.647,4.989-16.757.959-3.56,2.057-7.462,2.985-11.726a110.741,110.741,0,0,0,1.706-13.772c.768-9.743,1.13-20.467,1.354-31.734.192-9.306.235-18.26.2-26.457v-.192l-.192-.053-13.016-3.742.139.373,7.739-12.014.139-.2-.224-.1-18.217-8.1-4.978-2.185-1.3-.554Z" transform="translate(-73.219 -95.394)"/><path class="f" d="M250.639,247a7.583,7.583,0,0,1,.9.309,4.339,4.339,0,0,1,1.919,1.578,3.667,3.667,0,0,1,.426,3.475,3.816,3.816,0,0,1-7.014.416,3.646,3.646,0,0,1,0-3.5,4.317,4.317,0,0,1,1.716-1.8c.522-.288.863-.362.853-.416a1.962,1.962,0,0,0-.949.224,4.264,4.264,0,0,0-1.972,1.8,4.423,4.423,0,0,0-.565,1.8,3.88,3.88,0,0,0,.448,2.132,4.264,4.264,0,0,0,7.941-.469,3.955,3.955,0,0,0,.192-2.132,4.393,4.393,0,0,0-.778-1.716,4.264,4.264,0,0,0-2.132-1.556,1.716,1.716,0,0,0-.981-.149Z" transform="translate(-144.12 -93.978)"/><path class="f" d="M284.144,225.163c-.064,0-.1,1.066-.554,2.878a23.185,23.185,0,0,1-3.443,7.153,61.023,61.023,0,0,1-7.888,8.858,11.577,11.577,0,0,1-2.612,2.132,3.923,3.923,0,0,1-3.273.192,24.092,24.092,0,0,1-3.294-1.62l-3.358-1.844a86.869,86.869,0,0,1-12.184-7.92,41.254,41.254,0,0,1-8.144-8.528,30.916,30.916,0,0,1-3.71-7.057c-.309-.9-.533-1.6-.661-2.132a5.688,5.688,0,0,0-.235-.725,3.359,3.359,0,0,0,.128.757,17.625,17.625,0,0,0,.565,2.132,28.857,28.857,0,0,0,3.582,7.217,40.923,40.923,0,0,0,8.144,8.73A83.9,83.9,0,0,0,259.4,243.37l3.368,1.844a23.036,23.036,0,0,0,3.379,1.652,5.169,5.169,0,0,0,1.887.288,4.509,4.509,0,0,0,1.8-.512,11.726,11.726,0,0,0,2.718-2.228,59.362,59.362,0,0,0,7.856-9,21.821,21.821,0,0,0,3.326-7.323,15.307,15.307,0,0,0,.33-2.132A3.675,3.675,0,0,0,284.144,225.163Z" transform="translate(-161.785 -95.985)"/><path class="h" d="M306.333,209.61c-.821.544-11.726,7.4-11.726,7.4l-3.273,4.594-39.441,7.153,5.117,56.006,23.974,77.464s-25.583,33.322-30.636,58.447c-3.1,15.371-2.846,34.388-2.846,34.388l86.344,14.167s5.735-19.976,2.676-47.393c-1.929-17.237-12.536-69.2-12.536-69.2l-14.444-60.76s-11.726-50.943-11.438-51.764-.544-16.064-.544-16.064l5.991-11.257Z" transform="translate(-228.606 -96.443)"/><path class="a" d="M280.325,223.62a2.059,2.059,0,0,0-.33.266l-.938.842L275.486,228l-13.111,12.141-.192.181.235.128,14.753,8.272V248.3l-14.785,5.842-.245.1.1.213c1.844,4.264,4.264,8.208,6.609,12.472s4.9,8.592,7.462,13.026c11.992,20.595,23.068,39.111,31.105,52.5,4.019,6.662,7.281,12.067,9.594,15.83,1.13,1.834,2,3.273,2.622,4.264l.7,1.066c.16.256.245.373.245.373a1.654,1.654,0,0,0-.2-.394l-.65-1.141-2.537-4.339-9.413-15.915c-7.941-13.442-18.964-31.979-30.913-52.574-2.558-4.445-5.053-8.8-7.462-13.015a138.957,138.957,0,0,1-6.577-12.355l-.149.32,14.764-5.884.458-.181-.437-.245-14.8-8.187v.309l12.973-12.227,3.518-3.336.9-.885a2.422,2.422,0,0,0,.277-.309Z" transform="translate(-227.372 -95.519)"/><g class="i" transform="translate(49.074 204.371)"><path d="M272.357,295.17c11.886,19.006,22.14,38.194,34.026,57.253-14.241-6.033-23.515-17.333-28.547-31.979a52.382,52.382,0,0,1-17.386,20.2Q266.409,317.918,272.357,295.17Z" transform="translate(-260.45 -295.17)"/></g><path class="h" d="M312.409,227.57s-9.594,3.422-13.186,9.786c-5.8,10.159-10.66,44.163-10.063,53.16,1.706,28.44,15.606,58.351,16.405,57.967,0,0,6.524,5.33,13.239,5.33a34.48,34.48,0,0,0,5.948-.618A20.04,20.04,0,0,0,339,342.535c3.859-7.568,9.157-18.729,10.372-25.008,1.951-10.127,4.189-64.139,4.189-64.139L329.23,242.2l-8.4,27.406s1.4-11.193,0-17.631S312.409,227.57,312.409,227.57Z" transform="translate(-289.11 -95.258)"/><path class="a" d="M320.5,317.06a3.743,3.743,0,0,0,0-.757v-2.132a62.752,62.752,0,0,1,.736-7.835,94.962,94.962,0,0,1,2.569-11.406c.608-2.132,1.29-4.317,2.036-6.6s1.567-4.637,2.26-7.089,1.322-4.861,1.876-7.206l.778-3.454a13.219,13.219,0,0,0,.458-3.411,7.93,7.93,0,0,0-.97-3.2c-.48-.938-1.013-1.8-1.5-2.654l-2.729-4.733c-1.738-2.857-3.315-5.063-4.413-6.566-.554-.757-.991-1.332-1.3-1.716s-.469-.586-.49-.565a5.006,5.006,0,0,0,.405.629l1.3,1.78c1.066,1.546,2.558,3.774,4.264,6.652l2.676,4.754c.9,1.706,2.239,3.486,2.356,5.607a12.455,12.455,0,0,1-.469,3.283l-.789,3.432c-.554,2.334-1.173,4.744-1.876,7.174s-1.5,4.786-2.249,7.078-1.418,4.509-2,6.63a88.028,88.028,0,0,0-2.462,11.48,53.21,53.21,0,0,0-.565,7.9,18.932,18.932,0,0,0,.064,2.132A3.41,3.41,0,0,0,320.5,317.06Z" transform="translate(-299.485 -93.928)"/><path class="a" d="M322.02,246.57c-.149.075,1.407,3.39,3.2,7.547s2.729,7.675,2.889,7.632a8.625,8.625,0,0,0-.48-2.356,46.908,46.908,0,0,0-1.9-5.49c-.863-2.132-1.759-3.944-2.441-5.255A9.646,9.646,0,0,0,322.02,246.57Z" transform="translate(-298.721 -94.005)"/><path class="a" d="M321.168,333.016a32.331,32.331,0,0,1-.267-9.082,31.981,31.981,0,0,1,2.846-8.624,8.356,8.356,0,0,0-1.45,2.292,21.085,21.085,0,0,0-1.866,12.792,8.75,8.75,0,0,0,.735,2.622Z" transform="translate(-292.369 -89.47)"/><path class="a" d="M278.193,166.2c.213.81,13.41,48.1,13.41,48.1v1.748L272.842,226.4l-1.951-2.068L258.76,177.024l17.567-11.214Z" transform="translate(-194.795 -99.333)"/><path class="a" d="M192.926,262.73a3.378,3.378,0,0,0,.117.736l.458,2.057c.426,1.78.959,4.381,1.588,7.59s1.226,7.067,1.642,11.374a103.465,103.465,0,0,1,.586,14.039c0,2.494-.277,4.914-.48,7.259-.171,1.162-.33,2.3-.49,3.422s-.437,2.185-.629,3.251c-.117.522-.224,1.066-.33,1.567s-.288,1-.426,1.492c-.288.981-.533,1.94-.831,2.857-.7,1.78-1.215,3.507-1.972,4.946l-1,2.132c-.33.65-.714,1.237-1.066,1.8a26.816,26.816,0,0,1-1.78,2.8l-1.237,1.706a3.2,3.2,0,0,0-.394.629,4.52,4.52,0,0,0,.49-.554l1.343-1.663a23.72,23.72,0,0,0,1.876-2.772c.33-.565.736-1.141,1.066-1.8l1.066-2.132a48.266,48.266,0,0,0,2.057-4.967c.309-.917.576-1.887.874-2.878.139-.49.3-.991.426-1.5s.235-1.066.341-1.578c.213-1.066.522-2.132.661-3.273s.341-2.281.512-3.443c.213-2.356.469-4.8.49-7.313a100.7,100.7,0,0,0-.629-14.1c-.448-4.328-1.151-8.176-1.77-11.4s-1.269-5.8-1.759-7.568c-.235-.842-.416-1.514-.565-2.036A4.539,4.539,0,0,0,192.926,262.73Z" transform="translate(-24.271 -92.939)"/><path class="a" d="M288.83,352.924a7.078,7.078,0,0,0,1.759.171,21.049,21.049,0,0,0,5.031-.661,20.338,20.338,0,0,0,7.227-3.443,21.426,21.426,0,0,0,6.6-8.261c1.738-3.528,3.624-7.4,5.586-11.587.97-2.132,1.993-4.264,2.91-6.556a37.993,37.993,0,0,0,1.993-7.366c.213-1.29.384-2.6.48-3.933s.16-2.676.235-4.04c.16-2.708.33-5.479.49-8.3.341-5.639.682-11.48,1.066-17.471.6-10.159,1.162-19.912,1.684-28.92v-.181l-.16-.075-24.368-11.15-.224-.1-.064.234c-2.74,9.125-4.967,16.565-6.513,21.746-.757,2.558-1.343,4.562-1.748,5.959-.192.661-.341,1.173-.448,1.556a4.994,4.994,0,0,0-.128.533s.075-.171.192-.522l.5-1.535c.426-1.386,1.066-3.368,1.855-5.916,1.6-5.17,3.88-12.589,6.694-21.7l-.3.128,24.3,11.193-.149-.256c-.533,9.007-1.066,18.761-1.716,28.93-.352,5.98-.693,11.822-1.066,17.471q-.256,4.264-.49,8.3c-.075,1.354-.149,2.7-.224,4.019a35.566,35.566,0,0,1-.469,3.891,37.83,37.83,0,0,1-1.929,7.281c-.906,2.271-1.919,4.434-2.878,6.534-1.94,4.189-3.816,8.069-5.522,11.608a21.2,21.2,0,0,1-6.4,8.187,20.5,20.5,0,0,1-7.089,3.486,22.986,22.986,0,0,1-4.978.757h-1.311A4.324,4.324,0,0,0,288.83,352.924Z" transform="translate(-259.136 -94.369)"/><g class="i" transform="translate(17.123 173.725)"><path d="M334.405,266.42c-3.454,7.76-6.4,17.311-9.839,25.072-2.836,6.4-5.724,13.335-4.093,20.115.235.981.938,2.132,1.908,1.887.672-.192.949-.981,1.119-1.663,3.7-14.838,7.2-30.572,10.9-45.41" transform="translate(-320 -266.42)"/></g><g class="i" transform="translate(169.806 174.439)"><path d="M181.364,267.09c3.454,7.91,8.155,15.052,9.21,23.611s-.64,17.887-6.5,24.229C185.873,298.8,184.413,282.984,181.364,267.09Z" transform="translate(-181.364 -267.09)"/></g><g class="i" transform="translate(143.668 273.457)"><path d="M216.682,374.658a33.631,33.631,0,0,1-11.928,4.946c-4.264.693-8.954-.075-12.269-2.867-4.69-3.933-5.607-10.66-6.2-16.757l25.445,10.894c1.748.746,3.72,1.748,4.147,3.6" transform="translate(-186.28 -359.98)"/></g><path class="a" d="M266.43,391a9.2,9.2,0,0,0,1.4.789c.917.49,2.26,1.151,3.933,1.951,3.347,1.588,8.027,3.646,13.314,5.66s10.148,3.592,13.708,4.626c1.78.522,3.2.917,4.264,1.162a9.6,9.6,0,0,0,1.578.341,7.937,7.937,0,0,0-1.514-.544l-4.168-1.333c-3.518-1.13-8.357-2.772-13.634-4.776s-9.967-4.008-13.346-5.5l-4-1.78a8.174,8.174,0,0,0-1.535-.6Z" transform="translate(-215.992 -84.477)"/><path class="a" d="M277.785,390.75a4.878,4.878,0,0,0-.81.352l-2.271,1.13-8.251,4.2-.33.171.32.2a125.269,125.269,0,0,0,20.872,10.361,122.905,122.905,0,0,0,26.863,6.993h.181v-.181c.256-2.526.458-4.541.6-6,.053-.661.107-1.183.139-1.6a2.185,2.185,0,0,0,0-.554,2.783,2.783,0,0,0-.107.544c-.064.416-.139.938-.224,1.588-.192,1.45-.448,3.464-.757,5.98l.192-.149a131.627,131.627,0,0,1-47.585-17.375v.373l8.155-4.381,2.217-1.215A4.716,4.716,0,0,0,277.785,390.75Z" transform="translate(-226.153 -84.493)"/><g class="i" transform="translate(41.196 312.546)"><path d="M313.715,413.556c-8.528,2.494-17.716,3.454-26.223.959s-16.469-9.125-18.772-17.866A140.292,140.292,0,0,0,313.715,413.556Z" transform="translate(-268.72 -396.65)"/></g><g class="i" transform="translate(86.191 329.367)"><path d="M268.483,412.558h-.2l.469-.128Z" transform="translate(-268.28 -412.43)"/></g><path class="c" d="M244.882,273.19c-.085.075.959,1.141,2.228,3.2a24.051,24.051,0,0,1,1.887,3.72,26.016,26.016,0,0,1,1.364,4.9,26.546,26.546,0,0,1,.309,5.1,24.426,24.426,0,0,1-.565,4.125c-.544,2.324-1.183,3.678-1.066,3.72a4.164,4.164,0,0,0,.49-.927,8.283,8.283,0,0,0,.469-1.141,13.59,13.59,0,0,0,.49-1.556,21.212,21.212,0,0,0,.7-4.2,25.115,25.115,0,0,0-.267-5.2,24.258,24.258,0,0,0-1.45-5.01,21.468,21.468,0,0,0-2.025-3.742,14.032,14.032,0,0,0-.97-1.311,8.617,8.617,0,0,0-.821-.927C245.181,273.414,244.914,273.158,244.882,273.19Z" transform="translate(-139.621 -92.249)"/><path class="f" d="M246.19,268.324a5.817,5.817,0,0,0,.288-.7,2.473,2.473,0,0,1,1.386-1.5,1.13,1.13,0,0,1,1.29.384,4.265,4.265,0,0,1,.618,1.706,15.425,15.425,0,0,1,.245,4.53l-.117,1.3.49-1.215a6.2,6.2,0,0,1,1.5-2.494,1.855,1.855,0,0,1,2.665,0,6.331,6.331,0,0,1,.778,3.315,10.948,10.948,0,0,1-.586,3.7l-.352,1.066.778-.768,2.441-2.42a16.215,16.215,0,0,1,1.258-1.194.821.821,0,0,1,1.237.085,3.657,3.657,0,0,1,.565,1.6c.117.6.213,1.2.277,1.823a20.145,20.145,0,0,1,0,3.763h0l-.1,1.4.618-1.247a9.114,9.114,0,0,1,1.887-2.814,2.857,2.857,0,0,1,2.889-.7,2.7,2.7,0,0,1,1.556,2.409,9.72,9.72,0,0,1-.352,3.081l.5.149A4.029,4.029,0,0,1,271.07,281a3.859,3.859,0,0,1,3.518,1.322,3.709,3.709,0,0,1,.863,3.347,4.03,4.03,0,0,1-1.791,2.58l.234.288a2.2,2.2,0,0,1,1.9-.608,2.974,2.974,0,0,1,1.674.8,3.2,3.2,0,0,1,.821,2.8,5.832,5.832,0,0,1-1,2.409s.053,0,.128-.117a4.52,4.52,0,0,0,1.066-2.26,3.443,3.443,0,0,0-.821-3.049,3.2,3.2,0,0,0-1.834-.906,2.526,2.526,0,0,0-2.217.672l-.917.97,1.151-.682a4.435,4.435,0,0,0,2.015-2.8,4.189,4.189,0,0,0-.927-3.742,4.381,4.381,0,0,0-3.955-1.514,4.52,4.52,0,0,0-3.518,2.889l.49.149a9.936,9.936,0,0,0,.384-3.262,3.273,3.273,0,0,0-1.887-2.867,3.39,3.39,0,0,0-3.454.8,9.178,9.178,0,0,0-2.015,2.985l.522.139h0a20.254,20.254,0,0,0-.053-3.859c-.064-.64-.16-1.258-.277-1.876a4.263,4.263,0,0,0-.682-1.833,1.322,1.322,0,0,0-.97-.522,1.556,1.556,0,0,0-1,.341,15.052,15.052,0,0,0-1.322,1.247l-2.43,2.441.426.256a11.385,11.385,0,0,0,.586-3.869,11.893,11.893,0,0,0-.2-1.865,3.838,3.838,0,0,0-.7-1.727,1.929,1.929,0,0,0-1.695-.736,2.8,2.8,0,0,0-1.61.672,6.4,6.4,0,0,0-1.578,2.676l.362.085a15.128,15.128,0,0,0-.341-4.626,4.349,4.349,0,0,0-.7-1.8,1.4,1.4,0,0,0-1.556-.426,2.473,2.473,0,0,0-1.418,1.663c-.085.234-.128.426-.16.544A.235.235,0,0,0,246.19,268.324Z" transform="translate(-168.313 -92.734)"/><path class="f" d="M225.7,298.531a3.179,3.179,0,0,0-.107-.672,4.7,4.7,0,0,1,.107-1.908,3.049,3.049,0,0,1,1.951-2.132,2.036,2.036,0,0,1,1.759.224,1.855,1.855,0,0,1,.906,1.695h.362a40,40,0,0,1-.416-6.662,1.738,1.738,0,0,1,.725-1.45,2.132,2.132,0,0,1,1.716-.1,2.985,2.985,0,0,1,1.418,1.215,10.426,10.426,0,0,1,.9,1.865l.48-.181a12.791,12.791,0,0,1-.736-3.688,13.149,13.149,0,0,1,.053-1.94,5.49,5.49,0,0,1,.437-1.876,2.473,2.473,0,0,1,3.283-.927,7.728,7.728,0,0,1,2.942,2.867l.48-.288-.533-1.066a9.136,9.136,0,0,1-1.066-3.763,3.837,3.837,0,0,1,1.4-3.2,2.9,2.9,0,0,1,3.251.288,9.317,9.317,0,0,1,2.249,2.729l.448-.245a40.672,40.672,0,0,1-2.377-6.95,8.636,8.636,0,0,1-.309-1.62.938.938,0,0,1,.7-1.066,1.6,1.6,0,0,1,1.322.288,5.822,5.822,0,0,1,1.013,1.066l.906,1.119-.565-1.322a18.313,18.313,0,0,1-1.386-5.159,17.764,17.764,0,0,1-.117-2.2,3.507,3.507,0,0,1,.256-1.748.949.949,0,0,1,1.215-.235,1.876,1.876,0,0,1,.757.7c.3.5.405.8.437.789s0-.085-.064-.224a5.008,5.008,0,0,0-.277-.618,1.9,1.9,0,0,0-.778-.8,1.151,1.151,0,0,0-1.471.256,3.528,3.528,0,0,0-.352,1.876,16.234,16.234,0,0,0,.085,2.228,18.281,18.281,0,0,0,1.322,5.33l.341-.2a5.693,5.693,0,0,0-1.066-1.13,1.983,1.983,0,0,0-1.663-.373,1.375,1.375,0,0,0-.789.533,1.6,1.6,0,0,0-.256.917,8.985,8.985,0,0,0,.3,1.727,39.794,39.794,0,0,0,2.366,7.057l.458-.245a9.775,9.775,0,0,0-2.377-2.889,4.072,4.072,0,0,0-1.855-.746,2.836,2.836,0,0,0-2.015.448,4.392,4.392,0,0,0-1.642,3.7,9.593,9.593,0,0,0,1.066,3.987l.533,1.066.48-.288a8.272,8.272,0,0,0-3.2-3.049,3.741,3.741,0,0,0-2.239-.192,2.537,2.537,0,0,0-1.738,1.4,6.033,6.033,0,0,0-.49,2.057,12.88,12.88,0,0,0,0,2.025,13.717,13.717,0,0,0,.778,3.827l.469-.181a10.352,10.352,0,0,0-.959-1.951,3.475,3.475,0,0,0-1.663-1.386,2.5,2.5,0,0,0-2.132.16,2.132,2.132,0,0,0-.917,1.8,39.031,39.031,0,0,0,.49,6.748l.234,1.5.128-1.514a2.228,2.228,0,0,0-1.066-2,2.388,2.388,0,0,0-2.015-.213,3.2,3.2,0,0,0-2.047,2.334,4.371,4.371,0,0,0,.117,2.462Q225.68,298.531,225.7,298.531Z" transform="translate(-117.221 -93.04)"/><path class="b" d="M284.428,254.444c.341-1.066.938-14.305.938-14.305a8.858,8.858,0,0,0,4.36-5.33c1.3-4.019,1.3-12.205,1.3-12.205s2.377-3.273,2.526-4.264,7.3-.746,7.3-.746,5.063,4.317,6.993,3.869,1.492-3.123,1.492-3.123l-5.33-5.81-5.81-1.94h-8.443s-1.29-2.676,0-3.72,7.185-6.7,7.185-6.7h9.423s5.063,3.582,8.634.6v-2.079l-5.66-3.134s2.537-2.377-.6-5.063a42.392,42.392,0,0,0-6.4-4.466h-4.914s5.948-4.019,6.247-5.213,2.835-4.466.6-6.247l-15.787,9.679L275.7,196.594s-4.317,2.388-4.317,5.213-5.98,43.961-5.98,43.961Z" transform="translate(-225.27 -98.755)"/><path class="c" d="M270.56,198.8c.085.075.981-1.183,2.867-2.74a18.729,18.729,0,0,1,17.908-3.3c2.324.778,3.614,1.62,3.667,1.535a3.762,3.762,0,0,0-.874-.629,15.989,15.989,0,0,0-2.654-1.279,18.122,18.122,0,0,0-18.26,3.379,15.038,15.038,0,0,0-2.025,2.132A3.272,3.272,0,0,0,270.56,198.8Z" transform="translate(-210.773 -97.654)"/><path class="c" d="M277.454,194.481c.085.053.842-1,2.334-2.462a24.08,24.08,0,0,1,14.455-6.684c2.079-.192,3.379-.1,3.379-.192a2.644,2.644,0,0,0-.906-.16,17.893,17.893,0,0,0-2.505,0,20.8,20.8,0,0,0-3.678.522,24.129,24.129,0,0,0-4.264,1.482,23.681,23.681,0,0,0-3.923,2.335,20.089,20.089,0,0,0-2.782,2.473,14.93,14.93,0,0,0-1.588,1.929C277.592,194.171,277.422,194.449,277.454,194.481Z" transform="translate(-220.737 -98.071)"/><path class="e" d="M233.637,340.349l38.279-21.117-.949-5.2h-66.8L130.43,358.151l2.462,4.914,57.722,1.066Z" transform="translate(-38.312 -89.554)"/><path class="b" d="M250.689,335.236l-1.972,8.133s-5.937,5.714-6.812,7.91-5.937,6.6-5.937,6.6l-1.535,7.686s-3.742,6.4-9.007,7.7-12.088,0-12.088,0-12.962-9.455-15.819-10.553-31.212-3.294-31.425-3.955-1.759-4.264,1.066-4.264,15.6,1.13,15.6,1.13l-6.812-6.588a8.953,8.953,0,0,1,3.955-3.742c2.42-.874,7.035,2.644,7.035,2.644l9.668,5.053-11.64-8.794s.437-4.168,4.392-3.955,18.7,9.018,18.7,9.018l3.5.437s-1.535-4.179-1.983-5.714-3.07-3.294-3.07-3.294.874-5.714,4.168-5.5a11.566,11.566,0,0,1,8.794,5.714c1.535,3.081,3.081,7.249,3.081,7.249l14.316-5.628S242.118,330.62,250.689,335.236Z" transform="translate(-54.447 -88.226)"/></g></g></svg>